<?xml version="1.0" encoding="utf-8"?>
<!-- Generator: Adobe Illustrator 21.1.0, SVG Export Plug-In . SVG Version: 6.00 Build 0)  -->
<svg version="1.1" id="Layer_1" xmlns="http://www.w3.org/2000/svg" xmlns:xlink="http://www.w3.org/1999/xlink" x="0px" y="0px"
	 viewBox="0 0 99.9 82.4" style="enable-background:new 0 0 99.9 82.4;" xml:space="preserve">
<style type="text/css">
	.st0{fill:#FF00CC;}
</style>
<title>mouse-pink</title>
<path class="st0" d="M16.2,0h3.6c0.3,0.1,0.6,0.2,1,0.2C30.5,1.8,37.2,11,35.6,20.8c-0.2,1.3-0.6,2.5-0.9,3.8
	c10.1-5.2,20.2-5.3,30.4-0.1C61,11.8,70,1.4,79.8,0.4C90.5-0.7,99.6,7,99.9,17.7c0.2,4.9-1.7,9.7-5.2,13.1c-5.2,5-11.3,6.3-18.3,4.4
	c8,13.9,4.7,29.1-4.8,38.4c-9.8,9.6-24.8,11.5-36.7,4.8C27.4,74.3,22,67.2,20.1,59c-2.1-8.5-0.7-16.5,3.9-24.2L23.3,35
	c-8.8,2.8-18.2-1.5-21.8-10c-0.6-1.8-1.1-3.6-1.5-5.4c0-1.1,0-2.2,0-3.3c0.1-0.3,0.2-0.6,0.2-0.9C1,9.3,4.9,4.1,10.6,1.7
	C12.4,1,14.3,0.4,16.2,0z"/>
</svg>
