<svg id="Layer_1" data-name="Layer 1" xmlns="http://www.w3.org/2000/svg" viewBox="0 0 99.93 82.38"><defs><style>.cls-1{fill:#f0c;}.cls-2{fill:#fff;}</style></defs><title>mouse-pink</title><path class="cls-1" d="M16.44,8.9H20c.32.08.63.19,1,.24A17.9,17.9,0,0,1,35.82,29.66c-.23,1.27-.58,2.53-.88,3.82,10.12-5.25,20.22-5.34,30.39-.13-4.11-12.67,4.91-23,14.7-24,10.74-1.13,19.75,6.56,20.12,17.25A16.94,16.94,0,0,1,94.9,39.7c-5.15,5-11.32,6.29-18.27,4.45,8,13.9,4.72,29.1-4.82,38.36a30.78,30.78,0,0,1-36.73,4.75A30,30,0,0,1,20.29,67.87c-2.14-8.5-.71-16.51,3.89-24.15l-.65.16a17.8,17.8,0,0,1-21.78-10A40.56,40.56,0,0,1,.22,28.45q0-1.67,0-3.33c.07-.28.17-.56.22-.85A17.42,17.42,0,0,1,10.77,10.58,39.94,39.94,0,0,1,16.44,8.9Z" transform="translate(-0.22 -8.9)"/><path class="cls-2" d="M16.44,8.9a39.94,39.94,0,0,0-5.68,1.68A17.42,17.42,0,0,0,.44,24.27c0,.29-.14.57-.22.85V8.9Z" transform="translate(-0.22 -8.9)"/></svg>